<svg width="466" height="466" viewBox="0 0 466 466" fill="none" xmlns="http://www.w3.org/2000/svg">
<g clip-path="url(#clip0_55_10)">
<path d="M233.081 466C361.763 466 466.081 361.682 466.081 233C466.081 104.318 361.763 0 233.081 0C104.399 0 0.0810547 104.318 0.0810547 233C0.0810547 361.682 104.399 466 233.081 466Z" fill="#4B59FF"/>
<path d="M167.726 309.079C132.073 309.079 110.756 280.342 110.756 252.557V182.858H142.32V252.557C142.32 262.153 149.226 277.36 167.726 277.36C186.225 277.36 193.705 262.554 193.705 252.557V182.858H225.269V252.557C225.269 279.741 203.279 309.079 167.751 309.079H167.726Z" fill="white"/>
<path fill-rule="evenodd" clip-rule="evenodd" d="M301.15 268.899L318.255 245.356L318.262 245.367L301.152 268.901L301.15 268.899ZM306.176 276.181L327.686 307.35H366.132L323.568 251.478L306.176 276.181ZM306.554 212.652L323.897 239.175L366.132 182.858H326.639L306.554 212.652Z" fill="white"/>
<path d="M240.054 182.858L282.613 245.392L235.616 307.35H273.214L318.466 245.066L276.854 182.858H240.054Z" fill="#EBDB03"/>
<path d="M126.284 164.982C137.258 164.982 146.155 156.479 146.155 145.991C146.155 135.502 137.258 127 126.284 127C115.31 127 106.413 135.502 106.413 145.991C106.413 156.479 115.31 164.982 126.284 164.982Z" fill="white"/>
</g>
<defs>
<clipPath id="clip0_55_10">
<rect width="466" height="466" fill="white"/>
</clipPath>
</defs>
</svg>
